<svg aria-hidden="true" style="position: absolute; width: 0; height: 0; overflow: hidden;" version="1.1" xmlns="http://www.w3.org/2000/svg" xmlns:xlink="http://www.w3.org/1999/xlink">
    <defs>
        <symbol id="icon-PhotoDrop-Logo-Inline-Two_Toned" viewBox="0 0 260 32">
            <path fill="#262626" style="fill: var(--color1, #262626)" d="M13.233 1.238c1.715 0 3.299 0.397 4.755 1.189s2.597 1.866 3.424 3.221 1.241 2.838 1.241 4.452c0 2.449-0.919 4.54-2.757 6.269s-4.060 2.593-6.663 2.593h-7.674v12.535h-5.559v-30.259h13.233zM13.233 13.73c1.073 0 1.983-0.352 2.734-1.058s1.125-1.563 1.125-2.572c0-1.009-0.376-1.866-1.125-2.572-0.751-0.706-1.661-1.058-2.734-1.058h-7.674v7.262l7.674-0.002z"></path>
            <path fill="#262626" style="fill: var(--color1, #262626)" d="M45.122 1.238h5.56v30.259h-5.56v-12.492h-13.464v12.492h-5.559v-30.259h5.559v12.492h13.464v-12.492z"></path>
            <path fill="#262626" style="fill: var(--color1, #262626)" d="M62.147 3.27c2.466-1.353 5.154-2.032 8.065-2.032s5.599 0.677 8.065 2.032c2.466 1.355 4.418 3.192 5.859 5.512 1.439 2.32 2.16 4.849 2.16 7.587s-0.719 5.267-2.16 7.587c-1.441 2.319-3.393 4.158-5.859 5.512-2.466 1.355-5.154 2.032-8.065 2.032s-5.599-0.677-8.065-2.032c-2.466-1.353-4.42-3.192-5.859-5.512-1.441-2.32-2.16-4.849-2.16-7.587s0.719-5.267 2.16-7.587c1.439-2.32 3.393-4.156 5.859-5.512zM62.767 23.371c2.052 1.93 4.532 2.897 7.443 2.897s5.391-0.964 7.443-2.897c2.052-1.93 3.079-4.264 3.079-7.002s-1.027-5.072-3.079-7.002c-2.052-1.93-4.534-2.897-7.443-2.897s-5.391 0.966-7.443 2.897c-2.052 1.93-3.079 4.266-3.079 7.002s1.025 5.072 3.079 7.002z"></path>
            <path fill="#262626" style="fill: var(--color1, #262626)" d="M87.443 1.238h22.653v5.23h-8.547v25.029h-5.56v-25.029h-8.547v-5.23z"></path>
            <path fill="#262626" style="fill: var(--color1, #262626)" d="M119.263 3.27c2.466-1.353 5.154-2.032 8.065-2.032s5.599 0.677 8.064 2.032c2.466 1.355 4.418 3.192 5.859 5.512 1.439 2.32 2.16 4.849 2.16 7.587s-0.719 5.267-2.16 7.587c-1.441 2.319-3.393 4.158-5.859 5.512-2.466 1.355-5.154 2.032-8.064 2.032s-5.599-0.677-8.065-2.032c-2.466-1.353-4.42-3.192-5.859-5.512-1.441-2.32-2.16-4.849-2.16-7.587s0.719-5.267 2.16-7.587c1.439-2.32 3.393-4.156 5.859-5.512zM119.883 23.371c2.052 1.93 4.532 2.897 7.443 2.897s5.391-0.964 7.443-2.897c2.052-1.93 3.079-4.264 3.079-7.002s-1.027-5.072-3.079-7.002c-2.052-1.93-4.535-2.897-7.443-2.897s-5.391 0.966-7.443 2.897c-2.052 1.93-3.079 4.266-3.079 7.002s1.025 5.072 3.079 7.002z"></path>
            <path fill="#30c" style="fill: var(--color2, #30c)" d="M155.449 0.565c2.899-0.239 5.641 0.215 8.223 1.363 2.583 1.148 4.697 2.818 6.348 5.011 1.649 2.193 2.602 4.653 2.855 7.38 0.253 2.728-0.228 5.306-1.449 7.734-1.22 2.429-2.996 4.42-5.327 5.971-2.332 1.553-4.947 2.447-7.844 2.686l-9.568 0.788-2.803-30.144 9.565-0.788zM157.767 25.499c2.899-0.239 5.273-1.402 7.126-3.493 1.85-2.091 2.656-4.5 2.417-7.229-0.24-2.728-1.471-4.97-3.693-6.726-2.224-1.754-4.785-2.513-7.684-2.275l-4.026 0.332 1.834 19.723 4.026-0.333z"></path>
            <path fill="#30c" style="fill: var(--color2, #30c)" d="M199.785 10.685c-0.157 1.694-0.775 3.206-1.85 4.534-1.076 1.33-2.428 2.302-4.054 2.92l3.923 13.861-5.904-0.485-3.649-12.84-6.316-0.52-1.158 12.445-5.539-0.456 2.8-30.144 13.184 1.085c2.592 0.213 4.726 1.258 6.397 3.129 1.671 1.874 2.393 4.031 2.166 6.47zM190.065 13.531c1.069 0.088 2.009-0.188 2.822-0.831 0.813-0.642 1.265-1.457 1.357-2.449 0.092-0.99-0.202-1.876-0.883-2.654-0.682-0.778-1.556-1.213-2.624-1.301l-7.645-0.63-0.673 7.235 7.647 0.63z"></path>
            <path fill="#30c" style="fill: var(--color2, #30c)" d="M209.798 24.771l-5.437 4.569 25.929 1.402-4.867-5.126-15.625-0.845z"></path>
            <path fill="#30c" style="fill: var(--color2, #30c)" d="M208.848 8.16l-4.855-5.113-1.489 24.392 5.446-4.577 0.899-14.702z"></path>
            <path fill="#30c" style="fill: var(--color2, #30c)" d="M226.499 7.276l5.434-4.567-25.911-1.402 4.865 5.124 15.612 0.845z"></path>
            <path fill="#30c" style="fill: var(--color2, #30c)" d="M228.345 9.187l-0.897 14.685 4.855 5.115 1.489-24.378-5.447 4.579z"></path>
            <path fill="#30c" style="fill: var(--color2, #30c)" d="M249.706 0.36c1.7-0.211 3.325-0.012 4.879 0.595 1.553 0.608 2.833 1.531 3.84 2.773 1.009 1.242 1.625 2.662 1.849 4.262 0.34 2.429-0.281 4.612-1.863 6.552-1.581 1.94-3.665 3.071-6.244 3.39l-7.607 0.943 1.74 12.43-5.511 0.682-4.198-29.999 13.117-1.627zM251.44 12.746c1.062-0.131 1.917-0.593 2.563-1.385 0.647-0.792 0.9-1.688 0.759-2.687-0.14-0.999-0.633-1.803-1.475-2.412-0.841-0.608-1.793-0.845-2.857-0.714l-7.607 0.943 1.009 7.2 7.607-0.945z"></path>
        </symbol>
        <symbol id="icon-plus" viewBox="0 0 24 24">
            <path d="M5 13h6v6c0 0.552 0.448 1 1 1s1-0.448 1-1v-6h6c0.552 0 1-0.448 1-1s-0.448-1-1-1h-6v-6c0-0.552-0.448-1-1-1s-1 0.448-1 1v6h-6c-0.552 0-1 0.448-1 1s0.448 1 1 1z"></path>
        </symbol>
        <symbol id="icon-close" viewBox="0 0 20 20">
            <path d="M10 8.586l-7.071-7.071-1.414 1.414 7.071 7.071-7.071 7.071 1.414 1.414 7.071-7.071 7.071 7.071 1.414-1.414-7.071-7.071 7.071-7.071-1.414-1.414-7.071 7.071z"></path>
        </symbol>
        <symbol id="icon-folder_icon" viewBox="0 0 32 32">
            <path fill="#e6e6e6" style="fill: var(--color1, #e6e6e6)" d="M22.352 8.796h-2.064l-2.27-5.776-14.459 5.683 5.683 14.459 2.296-0.902v5.595l-2.179 0.856-8.275-21.053 18.034-7.088z"></path>
            <path fill="#ccc" style="fill: var(--color2, #ccc)" d="M9.243 23.163l-1.034-2.631v5.251l1.151 2.929 2.179-0.856v-5.595l-2.296 0.902z"></path>
            <path fill="#9ad14b" style="fill: var(--color3, #9ad14b)" d="M20.289 8.796h-8.751v13.464l-2.296 0.902-5.683-14.459 14.459-5.683z"></path>
            <path fill="#e6e6e6" style="fill: var(--color1, #e6e6e6)" d="M30.915 8.796v22.621h-19.377v-22.621h19.377zM28.995 26.211v-15.536h-15.536v15.536h15.536z"></path>
            <path fill="#90bc42" style="fill: var(--color4, #90bc42)" d="M8.208 11.215v9.317l1.034 2.631 2.296-0.902v-11.773h-2.603c-0.402-0-0.728 0.326-0.728 0.728z"></path>
            <path fill="#f7b239" style="fill: var(--color5, #f7b239)" d="M24.004 13.204c1.162 0 2.104 0.942 2.104 2.104s-0.941 2.103-2.104 2.103-2.104-0.942-2.104-2.104c0-1.162 0.941-2.104 2.104-2.104z"></path>
            <path fill="#2ba5f7" style="fill: var(--color6, #2ba5f7)" d="M28.995 21.363v4.848h-15.536v-5.616c1.11 0 1.11 0.769 2.22 0.769s1.109-0.769 2.219-0.769 1.11 0.769 2.22 0.769c1.11 0 1.11-0.769 2.22-0.769s1.11 0.769 2.22 0.769c1.11 0 1.11-0.769 2.22-0.769s1.11 0.768 2.22 0.768z"></path>
            <path fill="#96d0ea" style="fill: var(--color7, #96d0ea)" d="M28.995 10.675v10.688c-1.11 0-1.11-0.769-2.22-0.769s-1.11 0.769-2.22 0.769c-1.11 0-1.11-0.769-2.22-0.769s-1.11 0.769-2.22 0.769c-1.11 0-1.11-0.769-2.22-0.769s-1.11 0.769-2.219 0.769c-1.11 0-1.11-0.769-2.22-0.769v-9.919h15.536zM26.107 15.308c0-1.162-0.941-2.104-2.104-2.104s-2.104 0.942-2.104 2.104c0 1.161 0.941 2.103 2.104 2.103s2.104-0.942 2.104-2.104z"></path>
            <path fill="#fff" style="fill: var(--color8, #fff)" d="M17.645 7.521c-0.23 0-0.447-0.139-0.537-0.366l-0.561-1.428c-0.116-0.296 0.029-0.631 0.326-0.747s0.631 0.029 0.747 0.326l0.561 1.428c0.116 0.296-0.029 0.631-0.326 0.747-0.069 0.027-0.141 0.040-0.211 0.040z"></path>
            <path fill="#fff" style="fill: var(--color8, #fff)" d="M27.974 12.172c0 0.318-0.258 0.576-0.576 0.576s-0.576-0.258-0.576-0.576c0-0.318 0.258-0.576 0.576-0.576s0.576 0.258 0.576 0.576z"></path>
            <path fill="#333" style="fill: var(--color9, #333)" d="M30.915 8.226h-8.17l-3.090-7.861c-0.056-0.142-0.166-0.256-0.306-0.318s-0.299-0.064-0.441-0.008l-18.035 7.088c-0.142 0.056-0.256 0.166-0.318 0.306s-0.064 0.299-0.008 0.441l8.275 21.053c0.089 0.227 0.307 0.366 0.537 0.366 0.070 0 0.141-0.013 0.211-0.040l1.391-0.547v2.716c0 0.318 0.258 0.576 0.576 0.576h19.377c0.318 0 0.576-0.258 0.576-0.576v-22.621c0-0.318-0.258-0.576-0.576-0.576zM9.685 27.971l-7.853-19.98 16.962-6.667 2.713 6.903h-0.825l-2.127-5.41c-0.116-0.296-0.451-0.442-0.747-0.326l-14.459 5.683c-0.142 0.056-0.257 0.166-0.318 0.306s-0.064 0.299-0.008 0.441l5.683 14.459c0.089 0.227 0.307 0.366 0.537 0.366 0.070 0 0.142-0.013 0.211-0.040l1.508-0.593v4.356l-1.277 0.502zM10.962 8.803v13.071l-1.393 0.548-5.262-13.386 13.386-5.261 1.75 4.452h-7.905c-0.318 0-0.576 0.258-0.576 0.576zM30.339 30.847h-18.224v-21.468h18.224v21.468h0z"></path>
            <path fill="#333" style="fill: var(--color9, #333)" d="M13.459 26.793h15.536c0.318 0 0.576-0.258 0.576-0.576v-15.536c0-0.318-0.258-0.576-0.576-0.576h-15.536c-0.318 0-0.576 0.258-0.576 0.576v15.536c0 0.318 0.258 0.576 0.576 0.576zM14.035 25.64v-4.317c0.065 0.039 0.131 0.084 0.205 0.135 0.313 0.217 0.703 0.487 1.438 0.487s1.125-0.27 1.438-0.487c0.254-0.176 0.407-0.282 0.781-0.282s0.528 0.106 0.782 0.282c0.313 0.217 0.703 0.487 1.438 0.487s1.125-0.27 1.438-0.487c0.254-0.176 0.407-0.282 0.782-0.282s0.528 0.106 0.782 0.282c0.313 0.217 0.703 0.487 1.438 0.487s1.125-0.27 1.438-0.487c0.254-0.176 0.407-0.282 0.782-0.282s0.528 0.106 0.782 0.282c0.219 0.152 0.476 0.329 0.861 0.422v3.759l-14.383-0zM28.418 11.257v9.389c-0.065-0.039-0.131-0.084-0.205-0.135-0.313-0.217-0.703-0.487-1.438-0.487s-1.125 0.27-1.438 0.487c-0.254 0.176-0.407 0.282-0.782 0.282s-0.528-0.106-0.782-0.282c-0.313-0.217-0.703-0.487-1.438-0.487s-1.125 0.27-1.438 0.487c-0.254 0.176-0.407 0.282-0.782 0.282s-0.528-0.106-0.782-0.282c-0.313-0.217-0.703-0.487-1.438-0.487s-1.125 0.27-1.438 0.487c-0.254 0.176-0.407 0.282-0.781 0.282s-0.528-0.106-0.781-0.282c-0.219-0.152-0.476-0.329-0.861-0.422v-8.832h14.383z"></path>
            <path fill="#333" style="fill: var(--color9, #333)" d="M24.004 17.994c1.478 0 2.68-1.202 2.68-2.68s-1.202-2.68-2.68-2.68c-1.478 0-2.68 1.202-2.68 2.68s1.202 2.68 2.68 2.68zM24.004 13.787c0.842 0 1.527 0.685 1.527 1.527s-0.685 1.527-1.527 1.527-1.527-0.685-1.527-1.527c0-0.842 0.685-1.527 1.527-1.527z"></path>
            <path fill="#fff" style="fill: var(--color8, #fff)" d="M27.397 25.063c-0.318 0-0.576-0.258-0.576-0.576v-10.56c0-0.318 0.258-0.576 0.576-0.576s0.576 0.258 0.576 0.576v10.56c0 0.318-0.258 0.576-0.576 0.576z"></path>
        </symbol>
    </defs>
</svg>